<?xml version="1.0" encoding="UTF-8"?>
<svg version="1.1" xmlns="http://www.w3.org/2000/svg" width="619" height="619">
<path d="M0 0 C204.27 0 408.54 0 619 0 C619 204.27 619 408.54 619 619 C414.73 619 210.46 619 0 619 C0 414.73 0 210.46 0 0 Z " fill="#0B2C47" transform="translate(0,0)"/>
<path d="M0 0 C204.27 0 408.54 0 619 0 C619 204.27 619 408.54 619 619 C414.73 619 210.46 619 0 619 C0 414.73 0 210.46 0 0 Z M263 18 C261.78675049 18.19859619 260.57350098 18.39719238 259.32348633 18.60180664 C206.22420076 27.84028699 157.17908772 51.23651353 116.58276367 86.62182617 C115.45758407 87.60156377 114.32694509 88.57504691 113.19262695 89.54418945 C99.4443791 101.37918957 86.71450371 114.35623856 76 129 C75.25105469 129.96550781 74.50210938 130.93101562 73.73046875 131.92578125 C43.02989053 171.65910402 23.39991267 220.243083 17 270 C16.8455542 271.19713623 16.8455542 271.19713623 16.68798828 272.41845703 C12.74544624 304.60031282 13.84288503 339.27368438 21 371 C21.18900879 371.85835449 21.37801758 372.71670898 21.57275391 373.60107422 C26.06708376 393.67159574 32.16354401 413.39741729 41 432 C41.31412842 432.66717041 41.62825684 433.33434082 41.9519043 434.02172852 C50.9128583 452.82682573 61.3832343 470.42801009 74 487 C74.46760742 487.62455078 74.93521484 488.24910156 75.41699219 488.89257812 C82.64334876 498.53812534 90.61229179 507.35447289 99 516 C99.66257812 516.68449219 100.32515625 517.36898438 101.0078125 518.07421875 C108.96201484 526.25525196 116.94521482 534.03681724 126 541 C126.94359375 541.76054688 127.8871875 542.52109375 128.859375 543.3046875 C145.03504942 556.15490601 162.74710706 566.41551356 181 576 C182.15242187 576.61746094 183.30484375 577.23492188 184.4921875 577.87109375 C192.39098573 581.99174053 200.61726215 585.04339725 209 588 C209.86641113 588.31227539 210.73282227 588.62455078 211.62548828 588.94628906 C235.20043562 597.40400294 259.07830597 602.5872244 284 605 C284.94721924 605.09498779 285.89443848 605.18997559 286.87036133 605.2878418 C294.52366768 605.99852852 302.12843063 606.19269089 309.8125 606.1875 C311.07280029 606.18669434 312.33310059 606.18588867 313.6315918 606.18505859 C325.16875144 606.11078972 336.54075375 605.28485826 348 604 C348.79841309 603.91459961 349.59682617 603.82919922 350.41943359 603.74121094 C357.47574203 602.980865 364.16542837 601.99308051 371 600 C372.99445683 599.77839369 374.98893004 599.55690418 376.98388672 599.33984375 C379.73643015 598.87586452 382.2182369 597.80989638 384.8112793 596.80493164 C387.68245573 595.74901767 390.59784615 594.93614508 393.54248047 594.11254883 C432.62962368 583.09563232 469.04087617 563.1896302 500 537 C501.12361861 536.06370691 502.24732069 535.12751396 503.37109375 534.19140625 C514.05307562 525.23061485 524.03514754 515.70191742 533 505 C533.73347656 504.1440625 534.46695313 503.288125 535.22265625 502.40625 C555.50044047 478.49710347 572.8136657 451.40525377 584 422 C584.28673584 421.30898193 584.57347168 420.61796387 584.86889648 419.90600586 C587.67098753 413.11340952 589.92130025 406.21344062 592.0625 399.1875 C592.40087891 398.10146484 592.73925781 397.01542969 593.08789062 395.89648438 C595.15994573 389.14326803 596.89975486 382.38445622 598.38452148 375.4777832 C599 373 599 373 600 372 C600.2845297 370.46730105 600.51417934 368.92431043 600.71875 367.37890625 C600.84636719 366.44369141 600.97398437 365.50847656 601.10546875 364.54492188 C601.23566406 363.56072266 601.36585938 362.57652344 601.5 361.5625 C601.75719846 359.62587196 602.01746683 357.6896484 602.28125 355.75390625 C602.39533203 354.89095947 602.50941406 354.0280127 602.62695312 353.13891602 C603 351 603 351 604 349 C604.23583748 346.42633632 604.41300453 343.87645895 604.54296875 341.296875 C604.58439499 340.5015033 604.62582123 339.70613159 604.66850281 338.88665771 C606.03265854 310.56776044 606.46271987 281.91364134 601 254 C600.75862305 252.76056641 600.51724609 251.52113281 600.26855469 250.24414062 C596.88702635 233.45985029 592.16206616 217.45424952 585.96337891 201.50244141 C585.16354221 199.42481188 584.40971298 197.32953966 583.66796875 195.23046875 C580.14152597 185.32403055 575.05068088 176.19386399 570 167 C569.45158447 165.99839844 569.45158447 165.99839844 568.89208984 164.9765625 C551.08951453 132.64178604 525.66582044 101.31300768 495.78515625 79.33642578 C493.84627202 77.88491425 491.95397396 76.38381382 490.0625 74.87109375 C453.5763981 45.88543905 409.44766804 27.95385068 364 19 C362.34967773 18.66331299 362.34967773 18.66331299 360.66601562 18.31982422 C343.67658729 14.98791195 326.82391402 14.61582313 309.5625 14.5625 C308.50921509 14.55614532 307.45593018 14.54979065 306.37072754 14.54324341 C291.67488547 14.48810464 277.4957242 15.58703493 263 18 Z " fill="#EDECEC" transform="translate(0,0)"/>
<path d="M0 0 C1.15483887 0.15275391 1.15483887 0.15275391 2.33300781 0.30859375 C26.22349959 3.50847773 50.28632657 9.34128075 72 20 C74.97237762 21.28119725 77.94861212 22.55269726 80.92700195 23.81982422 C96.91658446 30.76414457 111.99100649 39.65301326 126 50 C126.58604004 50.43054688 127.17208008 50.86109375 127.77587891 51.3046875 C134.38960635 56.19414156 140.68879112 61.34926015 146.7421875 66.92578125 C148.77163463 68.79020413 150.84034156 70.58774554 152.9375 72.375 C161.849046 80.17260275 169.71712299 88.67464947 177 98 C177.48726562 98.61085449 177.97453125 99.22170898 178.4765625 99.85107422 C186.90017514 110.41430521 194.20083155 121.33315347 201 133 C201.78461154 134.32193803 202.56974548 135.64356619 203.35546875 136.96484375 C206.82196033 142.84933445 209.73923719 148.556826 212 155 C212.58523438 155.95390625 213.17046875 156.9078125 213.7734375 157.890625 C216.94851033 163.35840583 218.83062467 169.35402309 220.875 175.3125 C221.09310333 175.94605408 221.31120667 176.57960815 221.53591919 177.23236084 C228.05742419 196.29265267 232.57348867 215.99188492 235 236 C235.1381311 237.10927856 235.1381311 237.10927856 235.27905273 238.2409668 C240.19300166 283.84617552 233.46030294 330.61311311 216 373 C215.67306152 373.79535156 215.34612305 374.59070313 215.00927734 375.41015625 C202.95593452 404.2878376 185.76506097 430.71439752 164.3125 453.4765625 C162.00535045 455.88135231 162.00535045 455.88135231 160.375 458.3359375 C159.694375 459.15964844 159.694375 459.15964844 159 460 C158.01 460 157.02 460 156 460 C154.49312517 458.06950575 153.18448624 456.18309014 151.875 454.125 C141.91854017 439.25296763 129.7123722 428.95230523 113.6875 421.0625 C112.99092285 420.70921631 112.2943457 420.35593262 111.57666016 419.99194336 C97.14768454 413.2761158 81.52635303 412.37979907 65.875 412.25 C64.12627404 412.22173711 62.37757437 412.19179602 60.62890625 412.16015625 C56.41932043 412.08753767 52.21004132 412.0372286 48 412 C48 410.35 48 408.7 48 407 C49.38058594 406.76216797 49.38058594 406.76216797 50.7890625 406.51953125 C69.08575378 403.14712685 83.58444628 397.14315669 97 384 C97.62777344 383.40832031 98.25554687 382.81664062 98.90234375 382.20703125 C111.40563707 369.36351226 115.92592153 350.04716241 119 333 C119.9178125 332.84144531 120.835625 332.68289063 121.78125 332.51953125 C134.01638817 330.19331275 140.55811043 326.87826736 147.61146545 316.66706848 C149.19319644 313.62891227 149.3852229 311.73310449 149.40405273 308.3269043 C149.41673691 307.21192062 149.42942108 306.09693695 149.44248962 304.94816589 C149.43955399 303.75226334 149.43661835 302.55636078 149.43359375 301.32421875 C149.4388356 300.08509232 149.44407745 298.84596588 149.44947815 297.56929016 C149.457539 294.27936275 149.45044075 290.98985282 149.43914795 287.69995117 C149.43750509 285.69371359 149.44946313 283.68804478 149.46655273 281.68188477 C149.49731786 277.81239498 149.5006277 273.94381165 149.49609375 270.07421875 C149.51294472 268.28947395 149.51294472 268.28947395 149.53013611 266.46867371 C149.46045418 258.11630549 148.25646944 252.78454557 142.6875 246.3125 C141.800625 245.549375 140.91375 244.78625 140 244 C138.5459375 242.700625 138.5459375 242.700625 137.0625 241.375 C131.82243282 237.66718461 125.1961655 237.05704349 119 236 C118.74476563 234.54980469 118.74476563 234.54980469 118.484375 233.0703125 C116.52877743 222.38127218 114.34207057 213.12070655 107.07421875 204.69140625 C106.71972656 204.13324219 106.36523438 203.57507813 106 203 C107 200 107 200 108.56787109 198.58227539 C110.19784021 197.10439557 110.19784021 197.10439557 110.16259766 194.98217773 C110.03957275 193.84437866 110.03957275 193.84437866 109.9140625 192.68359375 C109.06985149 179.21101716 109.06985149 179.21101716 112.57373047 175.19726562 C116.6824201 172.10437749 121.31957667 170.0151421 125.99951172 167.92919922 C135.37796509 163.57303696 139.09730791 155.00447219 143 146 C145.25616985 139.23149044 144.68780248 130.60016362 142 124 C137.78378859 116.79249755 132.86159338 110.43128275 126.765625 104.6953125 C125 103 125 103 122.5 99.9375 C119.31353944 96.19340885 115.75552568 93.15891207 112 90 C111.14664062 89.25878906 110.29328125 88.51757812 109.4140625 87.75390625 C90.55112723 71.6041329 69.60651866 59.15233796 47 49 C46.19949219 48.61457031 45.39898437 48.22914062 44.57421875 47.83203125 C33.42265274 42.52691732 21.27493723 39.152876 9.3125 36.25 C8.5071582 36.05156494 7.70181641 35.85312988 6.87207031 35.64868164 C-7.23403972 32.35866376 -21.14653112 31.59139872 -35.5625 31.625 C-36.44329224 31.62554382 -37.32408447 31.62608765 -38.23156738 31.62664795 C-51.8433583 31.66523537 -64.80398497 32.40254033 -78 36 C-78.88042969 36.23557617 -79.76085937 36.47115234 -80.66796875 36.71386719 C-89.97679557 39.25354355 -99.17046901 42.0844077 -108 46 C-109.35527598 46.58117891 -110.71076672 47.1618571 -112.06640625 47.7421875 C-136.28581712 58.20051022 -157.98638249 71.75931797 -178 89 C-179.37865234 90.18335938 -179.37865234 90.18335938 -180.78515625 91.390625 C-183.23593726 93.55010875 -185.62823901 95.75407199 -188 98 C-188.47920898 98.45197754 -188.95841797 98.90395508 -189.45214844 99.36962891 C-196.4598159 106.02402461 -202.8011953 112.78938777 -208 121 C-208.45375 121.71285156 -208.9075 122.42570312 -209.375 123.16015625 C-213.36937267 130.58025826 -213.47932613 139.83658284 -211.1875 147.8359375 C-205.86771608 159.54685071 -194.68210951 170.19690003 -182.66015625 174.72265625 C-181.45230469 175.14417969 -180.24445313 175.56570312 -179 176 C-178.9906543 176.57967529 -178.98130859 177.15935059 -178.97167969 177.7565918 C-178.9177593 180.40106946 -178.83415871 183.04381893 -178.75 185.6875 C-178.73582031 186.59951172 -178.72164063 187.51152344 -178.70703125 188.45117188 C-178.50987813 193.87288273 -178.13436251 197.07235562 -174 201 C-175.29910431 204.50139542 -176.85241413 207.49156386 -178.875 210.625 C-183.78222781 218.69972938 -186.38269432 226.58608841 -187 236 C-187.7734375 236.09796875 -188.546875 236.1959375 -189.34375 236.296875 C-199.63662667 237.77456521 -207.54131147 240.44992662 -214 249 C-218.27750596 255.92553401 -218.61428283 261.63868336 -218.6015625 269.6796875 C-218.61441788 271.4916008 -218.61441788 271.4916008 -218.62753296 273.34011841 C-218.6389818 275.88671368 -218.64004794 278.43337433 -218.63134766 280.97998047 C-218.62503049 284.85628922 -218.6719744 288.72953725 -218.72265625 292.60546875 C-218.7272033 295.08853784 -218.72860873 297.57161509 -218.7265625 300.0546875 C-218.74498199 301.20290985 -218.76340149 302.3511322 -218.78237915 303.53414917 C-218.68453768 312.13098971 -216.38965967 318.18369853 -210.56192017 324.57785034 C-204.0362211 330.46878883 -196.49376374 332.67720073 -188 334 C-187.82984375 334.78761719 -187.6596875 335.57523437 -187.484375 336.38671875 C-183.64315533 353.65177524 -178.4960547 368.27976688 -167 382 C-166.38640625 382.81597656 -165.7728125 383.63195312 -165.140625 384.47265625 C-152.54965543 399.33827179 -134.49546793 404.73470494 -116 407 C-115.67 408.65 -115.34 410.3 -115 412 C-116.15298584 412.0093457 -117.30597168 412.01869141 -118.49389648 412.02832031 C-122.85737855 412.06882305 -127.22019912 412.1347332 -131.58325195 412.20751953 C-133.45555998 412.23538555 -135.32797814 412.25676691 -137.20043945 412.27099609 C-166.47988897 412.5065508 -190.78930485 421.05055931 -211.68359375 442.28125 C-216.36186068 447.77209955 -220.15619658 453.90929688 -224 460 C-228.4798052 459.60814943 -230.75315968 456.46992845 -233.5625 453.3125 C-234.0869873 452.73234131 -234.61147461 452.15218262 -235.15185547 451.55444336 C-240.75364384 445.28208946 -245.95033966 438.7209338 -251 432 C-251.41459473 431.4529541 -251.82918945 430.9059082 -252.25634766 430.34228516 C-265.24006272 413.10785719 -278.30732389 393.14877218 -285.12109375 372.5546875 C-286.03822064 369.88890533 -287.15431357 367.38210977 -288.3125 364.8125 C-292.5084299 354.88776179 -295.15060523 344.37209967 -298 334 C-298.33257812 332.80117188 -298.66515625 331.60234375 -299.0078125 330.3671875 C-301.49671936 320.54255516 -302.47431282 310.40751933 -303.65869141 300.35913086 C-303.93928402 298.06719962 -303.93928402 298.06719962 -304.51225281 296.15667725 C-305.05547588 293.75470169 -305.13416715 291.59638992 -305.14526367 289.1340332 C-305.15164352 288.16814774 -305.15802338 287.20226227 -305.16459656 286.20710754 C-305.16570938 285.16551987 -305.1668222 284.12393219 -305.16796875 283.05078125 C-305.17129715 281.9647612 -305.17462555 280.87874115 -305.17805481 279.7598114 C-305.18312046 277.454055 -305.18546325 275.14829126 -305.18530273 272.8425293 C-305.18746371 269.37080144 -305.20555194 265.89940492 -305.22460938 262.42773438 C-305.30495381 230.60990762 -305.30495381 230.60990762 -302 224 C-301.77532028 221.98091873 -301.57105109 219.95956185 -301.375 217.9375 C-299.35743453 200.81609602 -293.46812203 183.91450365 -287 168 C-286.62617188 167.03191406 -286.25234375 166.06382812 -285.8671875 165.06640625 C-276.70216037 141.96156512 -263.80465593 120.17495412 -248 101 C-247.57154785 100.47680176 -247.1430957 99.95360352 -246.70166016 99.41455078 C-236.91616537 87.50130886 -226.72165582 76.04713356 -215 66 C-214.04996094 65.16210938 -213.09992188 64.32421875 -212.12109375 63.4609375 C-198.82968867 51.84392348 -184.4270043 41.58223275 -169 33 C-168.26668457 32.59152832 -167.53336914 32.18305664 -166.77783203 31.76220703 C-151.393971 23.27134455 -135.81149151 16.84458911 -119.1875 11.1875 C-118.06666016 10.80198975 -116.94582031 10.41647949 -115.79101562 10.01928711 C-109.43667006 7.90538941 -103.29224811 6.36940809 -96.6496582 5.4855957 C-93.8887058 4.97960341 -91.58749672 4.06915931 -89 3 C-86.97387695 2.52929688 -86.97387695 2.52929688 -84.98828125 2.21875 C-84.24102783 2.09991455 -83.49377441 1.9810791 -82.72387695 1.85864258 C-81.92812256 1.74029053 -81.13236816 1.62193848 -80.3125 1.5 C-79.46582764 1.37326904 -78.61915527 1.24653809 -77.74682617 1.1159668 C-75.99720074 0.85871207 -74.2469451 0.60570798 -72.49609375 0.35693359 C-70.95322982 0.13630888 -69.41130348 -0.09113994 -67.87109375 -0.32958984 C-45.76161484 -3.73146417 -22.10919806 -3.1023734 0 0 Z " fill="#ECECEC" transform="translate(345,41)"/>
<path d="M0 0 C15.84162051 4.61255472 32.16222053 7.42893706 48.57723999 8.91781616 C50.3413119 9.11937941 52.09919843 9.37646319 53.85171509 9.66152954 C63.09968535 11.16137675 72.1046706 11.46663974 81.44921875 11.41796875 C82.99469463 11.41677199 84.54017126 11.41632483 86.08564758 11.4165802 C89.29843817 11.41503025 92.51111497 11.40685505 95.72387695 11.39331055 C99.81184002 11.37627992 103.89967935 11.37249847 107.98767376 11.37325573 C111.16981657 11.37298204 114.35193314 11.36746986 117.53406715 11.36025429 C119.0405336 11.35710635 120.54700297 11.35510945 122.05347252 11.35436058 C136.18473939 11.72832032 136.18473939 11.72832032 149.9375 9.1875 C151.64574706 8.96212727 153.35909447 8.77444952 155.07421875 8.609375 C174.81150438 6.59499197 194.12294915 3.62005273 212.890625 -2.9921875 C215.91351642 -3.80604288 217.12721456 -4.0588005 219.9375 -2.8125 C221.71875 -1.6484375 221.71875 -1.6484375 223.4375 -0.1875 C224.0046875 0.27914063 224.571875 0.74578125 225.15625 1.2265625 C230.7843373 7.42239545 231.52341516 12.54363091 231.45507812 20.64233398 C231.46559204 22.18539467 231.46559204 22.18539467 231.47631836 23.7596283 C231.49388028 27.15122725 231.48227352 30.54198665 231.46875 33.93359375 C231.47144727 36.30664733 231.47533164 38.67969982 231.48034668 41.05274963 C231.4862409 46.02835606 231.47768773 51.00367508 231.45898438 55.97924805 C231.43630732 62.31697743 231.44924736 68.65402496 231.47327423 74.99172878 C231.48782997 79.89666234 231.48307976 84.80143834 231.47276306 89.70637703 C231.47011686 92.04045761 231.4732903 94.37455306 231.48268127 96.70861626 C231.55275159 119.03746604 229.07780523 137.7683558 213.42578125 154.8359375 C200.87552327 166.78555341 184.97085144 168.4917099 168.52905273 168.44628906 C166.87570034 168.44900275 165.22234916 168.45256579 163.56900024 168.45690918 C159.10009988 168.46598985 154.63129236 168.46250701 150.16239047 168.45615101 C145.47496217 168.45106943 140.78754155 168.45578837 136.10011292 168.45892334 C128.2311969 168.46255634 120.3623185 168.45778099 112.4934082 168.44824219 C103.40759343 168.43735514 94.3218684 168.44088772 85.23605579 168.451895 C77.42094419 168.46098233 69.60585954 168.46224619 61.79074436 168.45701766 C57.1292693 168.4539064 52.46783638 168.45346546 47.80636406 168.46009064 C43.42405512 168.46588465 39.0418615 168.46182967 34.65956497 168.45030212 C33.05519998 168.44766668 31.45082521 168.44840148 29.84646416 168.45282745 C14.92967136 168.49017243 14.92967136 168.49017243 7.9375 166.1875 C7.050625 165.90390625 6.16375 165.6203125 5.25 165.328125 C-0.61617118 163.06885637 -5.31235164 160.30297301 -10.0625 156.1875 C-10.66964844 155.66285156 -11.27679688 155.13820313 -11.90234375 154.59765625 C-19.07283461 147.92925665 -23.53583242 139.22859325 -27.0625 130.1875 C-27.40455978 129.3780896 -27.74661957 128.5686792 -28.0990448 127.73474121 C-29.42222871 122.86305389 -29.34929982 118.25507147 -29.3371582 113.22851562 C-29.34226913 112.13512375 -29.34738007 111.04173187 -29.35264587 109.91520691 C-29.36652395 106.30799863 -29.36558663 102.70098177 -29.36328125 99.09375 C-29.3671687 96.58321054 -29.37150347 94.07267174 -29.37626648 91.56213379 C-29.38372451 86.30328751 -29.38357866 81.04449065 -29.37817383 75.78564453 C-29.37213096 69.71550249 -29.38445717 63.64559206 -29.4057439 57.57548952 C-29.4255073 51.72353861 -29.42853106 45.87167826 -29.42500877 40.0196991 C-29.42552219 37.53500321 -29.43076366 35.05030364 -29.44082069 32.56562805 C-29.45315551 29.0923984 -29.446411 25.61970543 -29.43481445 22.14648438 C-29.44245819 21.12084885 -29.45010193 20.09521332 -29.45797729 19.03849792 C-29.40918268 12.42726528 -28.51482618 8.04773786 -24.08984375 2.88671875 C-23.40019531 2.22285156 -22.71054688 1.55898438 -22 0.875 C-21.30777344 0.19824219 -20.61554688 -0.47851562 -19.90234375 -1.17578125 C-14.40136942 -6.06942933 -6.33309979 -1.92101424 0 0 Z " fill="#EBEAEB" transform="translate(210.0625,257.8125)"/>
<path d="M0 0 C2.25031878 -0.00571194 4.50063466 -0.01267937 6.75094604 -0.02079773 C12.82755315 -0.03865425 18.90401525 -0.03757476 24.98064065 -0.03185534 C30.06970343 -0.02875224 35.1587388 -0.03486846 40.24779767 -0.04089409 C52.94771127 -0.0557131 65.64752301 -0.0521468 78.34743031 -0.04003078 C89.33791525 -0.03010493 100.32823168 -0.04303463 111.31869064 -0.06696498 C122.64535234 -0.09143861 133.97191369 -0.10054525 145.29860944 -0.09431225 C151.640988 -0.09095516 157.98322744 -0.09327428 164.32558632 -0.11056328 C170.29379651 -0.12612405 176.26168712 -0.12197606 182.2298851 -0.10325813 C184.40777084 -0.09959727 186.58568075 -0.10260672 188.76354408 -0.11314392 C214.61376796 -0.22857098 233.51833646 4.99606575 252.6628418 23.21655273 C264.21059646 35.05665562 264.21059646 35.05665562 264.6237793 41.84155273 C262.78823267 45.93719418 259.48050521 47.99410128 255.9128418 50.59155273 C255.14705811 51.16107666 254.38127441 51.73060059 253.59228516 52.31738281 C240.6163267 61.8409119 226.69723444 69.89618119 212.4753418 77.40405273 C211.44594482 77.95262939 210.41654785 78.50120605 209.35595703 79.06640625 C200.72895322 83.53810952 192.01894789 86.95795233 182.7878418 89.96655273 C182.0773468 90.20083984 181.36685181 90.43512695 180.63482666 90.67651367 C166.77406146 95.22717612 152.8310976 98.76685411 138.4753418 101.40405273 C137.59023926 101.57904297 136.70513672 101.7540332 135.79321289 101.93432617 C107.80450911 107.33424801 75.42037659 106.65417401 47.4753418 101.40405273 C46.56268555 101.24308105 45.6500293 101.08210937 44.7097168 100.91625977 C2.58104849 93.34444628 -46.42855823 73.97085739 -77.5246582 43.40405273 C-78.5246582 40.40405273 -78.5246582 40.40405273 -77.4777832 38.12670898 C-66.1221875 20.39010194 -51.43200225 6.89224361 -30.54963684 1.79649353 C-20.43760092 -0.29219375 -10.28476786 -0.02369257 0 0 Z " fill="#ECECEC" transform="translate(217.524658203125,476.595947265625)"/>
<path d="M0 0 C1.25158401 -0.00571014 2.50316803 -0.01142029 3.79267883 -0.01730347 C5.16703786 -0.01854861 6.54139701 -0.01967375 7.91575623 -0.02069092 C9.37336349 -0.02532396 10.83096955 -0.03034927 12.28857422 -0.03573608 C16.23937858 -0.04881845 20.19016597 -0.05529732 24.14098859 -0.05974674 C26.61457306 -0.06268524 29.08815298 -0.06679157 31.56173515 -0.07125092 C39.31609339 -0.08491717 47.07044112 -0.09458712 54.82481056 -0.09845281 C63.74745715 -0.1029264 72.66994999 -0.1204454 81.59254986 -0.1494534 C88.50746962 -0.1711462 95.42234638 -0.18116118 102.33729976 -0.18249393 C106.45855473 -0.18353687 110.57966502 -0.18933449 114.70088387 -0.20731354 C118.58417045 -0.22392541 122.46720567 -0.22588697 126.35051537 -0.21717453 C127.76572981 -0.21641101 129.18095852 -0.22065493 130.596138 -0.23063278 C147.85125821 -0.34503053 160.77409066 2.90348539 173.44090271 14.82403564 C182.21335435 23.93448017 184.26294188 34.98801703 184.22703552 47.29620361 C183.80077983 58.73566129 178.95640511 67.94873131 170.94871521 76.08966064 C160.02025318 85.93090003 147.23028023 87.74321179 132.97972107 87.64215088 C131.43916329 87.64594289 129.89860895 87.65145015 128.35806274 87.65852356 C124.20925912 87.67237944 120.06087479 87.66137909 115.91209483 87.64481235 C111.55040279 87.63086523 107.18873272 87.63743275 102.82702637 87.64094543 C95.50643736 87.64363969 88.18601306 87.63023882 80.86546326 87.60699463 C72.42545208 87.5803799 63.9857159 87.57864391 55.54567713 87.59038299 C47.39458794 87.60119515 39.24359734 87.59494745 31.09251595 87.58082771 C27.63784491 87.57509865 24.18324676 87.57512614 20.72857475 87.57989311 C16.65475289 87.58469672 12.58122878 87.57442261 8.50746346 87.55293846 C7.02046843 87.54741654 5.53344453 87.54686254 4.04644775 87.55189133 C-10.69860115 87.59547084 -21.62169149 85.37384377 -32.55519104 75.03497314 C-43.07737234 63.90195361 -44.9124246 53.17367115 -44.66065979 38.43341064 C-44.16150824 26.77216227 -38.63621384 18.97250884 -30.32862854 11.14044189 C-21.61677441 3.27604439 -11.65650351 0.03199503 0 0 Z " fill="#0A2C47" transform="translate(241.32862854003906,279.85955810546875)"/>
<path d="M0 0 C3.1875 0.625 3.1875 0.625 5.625 3.75 C6.51260853 5.35697753 7.3608338 6.98583903 8.1875 8.625 C8.48366211 9.2034668 8.77982422 9.78193359 9.08496094 10.37792969 C11.16279317 14.43943256 13.18884293 18.52400913 15.1875 22.625 C17.95026177 22.10231534 20.5135876 21.51630413 23.1875 20.625 C24.76783192 20.53794571 26.35160378 20.50732048 27.93432617 20.51147461 C28.89509567 20.51155014 29.85586517 20.51162567 30.8457489 20.51170349 C31.88020645 20.51686478 32.914664 20.52202606 33.98046875 20.52734375 C35.04163406 20.5287587 36.10279938 20.53017365 37.19612122 20.53163147 C40.58910935 20.53723394 43.98203177 20.54978686 47.375 20.5625 C49.67382717 20.56751468 51.97265538 20.57207764 54.27148438 20.57617188 C59.91017872 20.58720417 65.54883466 20.6039447 71.1875 20.625 C70.39057512 25.13589556 69.58300244 27.39118815 66.1875 30.625 C58.11300414 35.33664561 49.98808735 36.78981966 40.8125 37.875 C38.34625101 38.19190661 35.88010092 38.50958398 33.4140625 38.828125 C32.33721191 38.95864258 31.26036133 39.08916016 30.15087891 39.22363281 C27.46481781 39.58743941 24.83758261 40.05979617 22.1875 40.625 C22.1875 41.615 22.1875 42.605 22.1875 43.625 C30.4375 43.625 38.6875 43.625 47.1875 43.625 C46.0280517 48.2627932 44.78945875 49.58334595 41.1875 52.625 C36.01291111 55.15212481 30.81520507 54.82519504 25.1875 54.625 C25.5175 55.615 25.8475 56.605 26.1875 57.625 C26.256491 59.68645107 26.27217727 61.75001401 26.25 63.8125 C26.24097656 64.89917969 26.23195313 65.98585938 26.22265625 67.10546875 C26.21105469 67.93691406 26.19945312 68.76835937 26.1875 69.625 C19.45565564 70.40134224 15.08706459 67.07660388 9.55273438 63.73632812 C5.97976717 61.69784279 3.81335904 60.63049602 -0.37109375 60.59375 C-4.43470461 61.81144951 -7.79650931 63.54508779 -11.4375 65.6875 C-19.27559422 70.29119992 -19.27559422 70.29119992 -23.8125 69.625 C-24.8125 68.625 -24.8125 68.625 -24.9453125 65.97265625 C-24.94273437 64.88855469 -24.94015625 63.80445313 -24.9375 62.6875 C-24.94007813 61.60597656 -24.94265625 60.52445313 -24.9453125 59.41015625 C-24.8125 56.625 -24.8125 56.625 -23.8125 54.625 C-25.04613281 54.78162109 -25.04613281 54.78162109 -26.3046875 54.94140625 C-31.55434221 55.32330954 -35.33795716 55.54775437 -39.90234375 52.69140625 C-42.40876341 50.44389938 -44.70986894 48.25447541 -46.8125 45.625 C-46.8125 44.965 -46.8125 44.305 -46.8125 43.625 C-38.5625 43.625 -30.3125 43.625 -21.8125 43.625 C-21.8125 42.635 -21.8125 41.645 -21.8125 40.625 C-27.86634486 39.60490118 -33.92168344 38.60177619 -39.98828125 37.66015625 C-42.03385417 37.3359375 -44.07942708 37.01171875 -46.125 36.6875 C-47.15689453 36.53087891 -48.18878906 36.37425781 -49.25195312 36.21289062 C-56.91012931 34.98149907 -63.54174442 33.86073457 -68.75 27.625 C-69.33652344 26.944375 -69.92304688 26.26375 -70.52734375 25.5625 C-71.8125 23.625 -71.8125 23.625 -71.8125 20.625 C-65.1414326 20.54855617 -58.47047937 20.49623558 -51.79907227 20.46020508 C-49.53242776 20.44517492 -47.26581206 20.42474518 -44.99926758 20.39868164 C-41.72990787 20.36204412 -38.46093473 20.3452154 -35.19140625 20.33203125 C-34.18791641 20.31654739 -33.18442657 20.30106354 -32.15052795 20.28511047 C-25.8293503 20.28361895 -20.66534221 21.21496596 -14.8125 23.625 C-14.565 22.79484375 -14.3175 21.9646875 -14.0625 21.109375 C-12.63855277 17.1401221 -10.81828013 13.57406553 -8.8125 9.875 C-8.27882813 8.86759766 -8.27882813 8.86759766 -7.734375 7.83984375 C-4.00135904 0.8891909 -4.00135904 0.8891909 0 0 Z " fill="#E8E9E9" transform="translate(310.8125,113.375)"/>
<path d="M0 0 C1.05072693 -0.00328308 2.10145386 -0.00656616 3.184021 -0.00994873 C18.95348766 -0.02570601 34.55353835 0.67458598 50.25 2.1875 C51.61992096 2.3180629 51.61992096 2.3180629 53.01751709 2.45126343 C55.59900139 2.70313056 58.17857316 2.96835012 60.7578125 3.2421875 C61.50669739 3.31938522 62.25558228 3.39658295 63.02716064 3.47612 C67.56817619 3.99150675 71.73346669 4.99785616 76.125 6.3125 C77.49996535 6.54526794 78.88207901 6.74250241 80.26953125 6.8828125 C99.27272861 9.11075942 117.46338851 15.06671067 135.125 22.3125 C135.125 26.9325 135.125 31.5525 135.125 36.3125 C128.436107 35.06612242 122.04633517 33.48113426 115.5625 31.4375 C97.30695798 25.88293179 79.26127483 22.68330596 60.27935791 20.55535889 C58.80868474 20.38957118 57.33860223 20.2184795 55.86907959 20.04278564 C38.4455579 17.99572924 21.02071903 17.91517432 3.50362778 17.93494034 C1.09979585 17.93752712 -1.30402228 17.93687946 -3.70785522 17.93612671 C-27.32386866 17.9446997 -50.48999663 18.77415865 -73.875 22.3125 C-75.73903967 22.55755694 -77.60357267 22.79891421 -79.46875 23.03515625 C-88.38828211 24.22537605 -97.11858237 26.19470706 -105.875 28.25 C-107.41667847 28.61134033 -107.41667847 28.61134033 -108.98950195 28.97998047 C-115.03526628 30.45575296 -120.80111559 32.27623743 -126.59765625 34.54516602 C-128.875 35.3125 -128.875 35.3125 -131.875 35.3125 C-131.875 30.6925 -131.875 26.0725 -131.875 21.3125 C-106.3038904 10.12513955 -79.3959407 5.19169408 -51.69140625 3.0090332 C-50.73878906 2.93257568 -49.78617187 2.85611816 -48.8046875 2.77734375 C-47.95116699 2.711521 -47.09764648 2.64569824 -46.21826172 2.57788086 C-43.93743491 2.37815397 -43.93743491 2.37815397 -42.02441406 1.81738281 C-38.8974686 1.08288449 -35.75153642 0.9457074 -32.5546875 0.76953125 C-31.81427216 0.72810501 -31.07385681 0.68667877 -30.31100464 0.64399719 C-20.21292114 0.12505691 -10.10974002 0.02605449 0 0 Z " fill="#E8E8E9" transform="translate(309.875,194.6875)"/>
<path d="M0 0 C6.94484737 3.79287428 10.7238702 9.00633414 14.20703125 15.97265625 C15.13120123 24.31659097 14.26396456 31.12447186 9.20703125 37.97265625 C3.78423786 43.33977415 -1.94292271 45.92810466 -9.54296875 46.47265625 C-15.69031903 46.33357593 -20.08566448 43.78532187 -24.79296875 39.97265625 C-30.62269066 33.74700475 -32.3315739 27.36638061 -32.16796875 19.04296875 C-31.2751101 11.73268856 -27.16693627 6.74214351 -21.63671875 2.1640625 C-15.12950867 -2.04080842 -7.25250902 -2.66770612 0 0 Z " fill="#4FA7AA" transform="translate(255.79296875,302.02734375)"/>
<path d="M0 0 C5.34423786 3.3712755 9.830294 8.00715368 12.1875 13.9375 C13.0966974 21.83483092 12.76948788 29.24698672 8.1875 35.9375 C3.55034301 41.27903527 -2.05937507 44.26205593 -9.0390625 45.25390625 C-14.75307733 45.55826099 -19.1842594 44.32401752 -23.8125 40.9375 C-28.52579864 36.40976429 -32.53264576 32.15764101 -33.11328125 25.4765625 C-33.11714844 24.18492187 -33.12101562 22.89328125 -33.125 21.5625 C-33.14175781 20.27601563 -33.15851563 18.98953125 -33.17578125 17.6640625 C-32.44837541 10.20228647 -28.39823049 5.54572765 -22.8125 0.9375 C-15.70027179 -3.3024822 -7.4108721 -3.7866682 0 0 Z " fill="#4FA8AA" transform="translate(385.8125,303.0625)"/>
<path d="M0 0 C1.69162279 1.20365468 3.38013827 2.41362289 5.01953125 3.6875 C13.19669843 9.10668772 24.53483572 9.05142588 34 8 C39.85591714 6.79546008 45.54157811 5.29226907 50.4375 1.75 C53.62126975 -0.42428178 55.21765506 -0.64380339 59 0 C61.875 1.625 61.875 1.625 64 4 C64.68429011 7.57351503 64.37492485 9.31831846 62.625 12.5 C56.57954181 18.25757923 50.37928203 21.68965622 42 22 C42 22.66 42 23.32 42 24 C24.03528025 26.99411996 7.59514423 24.6561146 -8 15 C-10.55647014 12.26777254 -10.96170337 11.306373 -11.4375 7.5 C-11 4 -11 4 -9.4375 1.5625 C-5.98413031 -0.65119852 -4.04354356 -0.61681173 0 0 Z " fill="#0F2D47" transform="translate(285,388)"/>
<path d="M0 0 C6.93 0.33 13.86 0.66 21 1 C21 1.33 21 1.66 21 2 C11.91679937 3.05979613 2.87687503 3.14696119 -6.25390625 3.1328125 C-7.80606603 3.133488 -9.35822571 3.13446008 -10.91038513 3.13571167 C-14.14526386 3.13717661 -17.38011477 3.13507283 -20.61499023 3.13037109 C-24.73563886 3.12466975 -28.85622238 3.12796309 -32.97686863 3.13394356 C-36.17612691 3.13757776 -39.37537006 3.13639759 -42.57462883 3.13381577 C-44.09308823 3.13315464 -45.61154906 3.13394602 -47.13000679 3.13629532 C-55.13557007 3.14596872 -63.05047069 3.05003809 -71 2 C-71 1.67 -71 1.34 -71 1 C-47.57 1 -24.14 1 0 1 C0 0.67 0 0.34 0 0 Z " fill="#626D7C" transform="translate(336,267)"/>
<path d="M0 0 C0.33 0 0.66 0 1 0 C1 6.27 1 12.54 1 19 C1.33 19 1.66 19 2 19 C2 31.21 2 43.42 2 56 C1.34 56 0.68 56 0 56 C-0.82431762 46.26779451 -1.15499439 36.64317283 -1.125 26.875 C-1.12886719 25.60785156 -1.13273438 24.34070313 -1.13671875 23.03515625 C-1.12875884 15.306082 -0.78414482 7.6896206 0 0 Z " fill="#435465" transform="translate(16,280)"/>
<path d="M0 0 C1.59710648 0.00186977 3.19421354 0.00329102 4.7913208 0.00428772 C8.95375204 0.00806896 13.11614725 0.01786063 17.27856445 0.0289917 C21.54247552 0.03930136 25.80639251 0.04380562 30.0703125 0.04882812 C38.40626636 0.05948776 46.74219117 0.07651001 55.078125 0.09765625 C55.078125 0.42765625 55.078125 0.75765625 55.078125 1.09765625 C53.9296685 1.11311745 53.9296685 1.11311745 52.75801086 1.12889099 C45.5338671 1.22696932 38.30980657 1.3294982 31.08579731 1.43699551 C27.37208748 1.49210141 23.65836961 1.54550121 19.94458008 1.5949707 C16.35891801 1.64279678 12.7733476 1.69514528 9.18779564 1.750597 C7.82152789 1.77093816 6.45523509 1.78966444 5.0889225 1.80673027 C3.17160847 1.83095734 1.25437766 1.86151838 -0.6628418 1.89233398 C-1.75316208 1.90787827 -2.84348236 1.92342255 -3.96684265 1.93943787 C-6.72240709 2.08697634 -9.23164529 2.51141616 -11.921875 3.09765625 C-14.05004883 3.11938477 -14.05004883 3.11938477 -16.12890625 2.9765625 C-17.25522461 2.90405273 -17.25522461 2.90405273 -18.40429688 2.83007812 C-19.17322266 2.77400391 -19.94214844 2.71792969 -20.734375 2.66015625 C-21.91676758 2.5818457 -21.91676758 2.5818457 -23.12304688 2.50195312 C-25.05639029 2.37306356 -26.98919664 2.23616131 -28.921875 2.09765625 C-28.921875 1.76765625 -28.921875 1.43765625 -28.921875 1.09765625 C-19.27077585 0.07403504 -9.68961716 -0.03373516 0 0 Z " fill="#525A67" transform="translate(290.921875,211.90234375)"/>
<path d="M0 0 C-1.98 0.99 -1.98 0.99 -4 2 C-1.69 2.66 0.62 3.32 3 4 C3.33 5.65 3.66 7.3 4 9 C3.67 8.34 3.34 7.68 3 7 C-5.25 7 -13.5 7 -22 7 C-22 6.01 -22 5.02 -22 4 C-14.68397232 1.65945996 -7.7591677 -0.23512629 0 0 Z " fill="#243A50" transform="translate(355,150)"/>
<path d="M0 0 C0.33 0 0.66 0 1 0 C1 2.64 1 5.28 1 8 C0.67 8 0.34 8 0 8 C-0.79283123 11.31222235 -1.58404696 14.62482868 -2.375 17.9375 C-2.70757812 19.32678711 -2.70757812 19.32678711 -3.046875 20.74414062 C-4.41672236 26.48541267 -5.73460974 32.23478738 -7 38 C-7.66 38 -8.32 38 -9 38 C-9.33 38.66 -9.66 39.32 -10 40 C-9.43519605 31.86329314 -7.30728954 24.42622023 -5 16.625 C-4.62693843 15.3426414 -4.25453789 14.06009031 -3.8828125 12.77734375 C-1.28348214 3.85044643 -1.28348214 3.85044643 0 0 Z " fill="#344356" transform="translate(31,211)"/>
<path d="M0 0 C4.15045789 3.35568936 7.7916683 6.79674712 11.3125 10.8125 C15.85173514 15.97001027 20.80687716 20.51158067 26 25 C25.34 25.66 24.68 26.32 24 27 C20.73312514 23.80734634 17.47627776 20.60491408 14.22827148 17.39306641 C13.12224164 16.30211216 12.01353274 15.213867 10.90209961 14.12841797 C9.30388749 12.56664251 7.71560096 10.9953398 6.12890625 9.421875 C5.63097061 8.93942322 5.13303497 8.45697144 4.62001038 7.9598999 C2.11248175 5.45360539 0.38930861 3.60388542 0 0 Z " fill="#192A3F" transform="translate(89,503)"/>
<path d="M0 0 C1.32 0.33 2.64 0.66 4 1 C-0.95 5.95 -5.9 10.9 -11 16 C-11.99 15.67 -12.98 15.34 -14 15 C-11.69732351 12.30537858 -9.35994259 9.64460493 -7 7 C-6.37867188 6.29875 -5.75734375 5.5975 -5.1171875 4.875 C-4.52164063 4.235625 -3.92609375 3.59625 -3.3125 2.9375 C-2.77238281 2.34839844 -2.23226562 1.75929688 -1.67578125 1.15234375 C-1.12277344 0.77207031 -0.56976563 0.39179688 0 0 Z " fill="#20354A" transform="translate(143,473)"/>
<path d="M0 0 C0.66 0 1.32 0 2 0 C2 4.62 2 9.24 2 14 C-3.48821566 12.96168893 -8.74565027 11.93581306 -14 10 C-14 9.67 -14 9.34 -14 9 C-12.58297487 9.14230808 -11.1663904 9.28900746 -9.75 9.4375 C-8.56664062 9.55931641 -8.56664062 9.55931641 -7.359375 9.68359375 C-5.17635361 9.97634993 -3.1226818 10.42064419 -1 11 C-1.01160156 10.37351563 -1.02320313 9.74703125 -1.03515625 9.1015625 C-1.04417969 8.28429687 -1.05320312 7.46703125 -1.0625 6.625 C-1.07410156 5.81289062 -1.08570313 5.00078125 -1.09765625 4.1640625 C-1 2 -1 2 0 0 Z " fill="#E0E2E4" transform="translate(443,217)"/>
<path d="M0 0 C1.43791516 0.14168137 2.8753237 0.28851043 4.3125 0.4375 C5.11300781 0.51871094 5.91351563 0.59992188 6.73828125 0.68359375 C9 1 9 1 12 2 C12 2.99 12 3.98 12 5 C3.75 5 -4.5 5 -13 5 C-13 4.67 -13 4.34 -13 4 C-12.31292969 3.93941406 -11.62585938 3.87882813 -10.91796875 3.81640625 C-10.01691406 3.73261719 -9.11585938 3.64882812 -8.1875 3.5625 C-7.29417969 3.48128906 -6.40085937 3.40007812 -5.48046875 3.31640625 C-2.87256441 3.06510233 -2.87256441 3.06510233 0 2 C0 1.34 0 0.68 0 0 Z " fill="#2F3E51" transform="translate(277,152)"/>
<path d="M0 0 C24.75 0.495 24.75 0.495 50 1 C50 1.33 50 1.66 50 2 C35.15 2.33 20.3 2.66 5 3 C5 2.34 5 1.68 5 1 C3.35 1 1.7 1 0 1 C0 0.67 0 0.34 0 0 Z " fill="#818B99" transform="translate(281,580)"/>
<path d="M0 0 C0.88751953 0.30744141 0.88751953 0.30744141 1.79296875 0.62109375 C2.58316406 0.89050781 3.37335938 1.15992188 4.1875 1.4375 C5.35345703 1.83775391 5.35345703 1.83775391 6.54296875 2.24609375 C10.68349886 3.51655848 14.53281558 4.12559474 18.86328125 4.09765625 C19.74951172 4.09443359 20.63574219 4.09121094 21.54882812 4.08789062 C22.46083984 4.07951172 23.37285156 4.07113281 24.3125 4.0625 C25.24384766 4.05798828 26.17519531 4.05347656 27.13476562 4.04882812 C29.42324373 4.03709234 31.71158808 4.02067363 34 4 C33.34 4.33 32.68 4.66 32 5 C31.67 5.66 31.34 6.32 31 7 C19.5003346 7.54130224 10.30075552 7.75690927 0 2 C0 1.34 0 0.68 0 0 Z " fill="#425063" transform="translate(289,392)"/>
<path d="M0 0 C2.75141192 -0.24905022 5.25669812 -0.32673572 8 -0.25 C9.10601562 -0.24226562 9.10601562 -0.24226562 10.234375 -0.234375 C15.69055451 -0.15472274 15.69055451 -0.15472274 18 1 C18 1.66 18 2.32 18 3 C11.4 3 4.8 3 -2 3 C-1.34 2.01 -0.68 1.02 0 0 Z " fill="#E4E7E8" transform="translate(305,12)"/>
<path d="M0 0 C0 0.33 0 0.66 0 1 C-6.14332959 3.23238884 -11.46800297 3.06720759 -17.9375 2.625 C-18.90751953 2.56828125 -19.87753906 2.5115625 -20.87695312 2.453125 C-23.25216354 2.31271847 -25.62614124 2.16142622 -28 2 C-28 1.67 -28 1.34 -28 1 C-18.64087671 0.00736571 -9.39605802 -0.10731538 0 0 Z " fill="#5D6979" transform="translate(290,212)"/>
<path d="M0 0 C0 0.33 0 0.66 0 1 C-1.87387477 1.3396019 -3.74916697 1.67138691 -5.625 2 C-6.66914063 2.185625 -7.71328125 2.37125 -8.7890625 2.5625 C-11.90574865 2.98715797 -14.85930812 3.07545206 -18 3 C-18.33 3.66 -18.66 4.32 -19 5 C-23.19387492 6.11836665 -25.26215125 6.10811426 -29 4 C-25.66909377 3.32081305 -22.33495832 2.65897708 -19 2 C-18.06542969 1.80921875 -17.13085938 1.6184375 -16.16796875 1.421875 C-10.66582872 0.3445329 -5.60566572 -0.21153456 0 0 Z " fill="#9EA5AD" transform="translate(243,200)"/>
<path d="M0 0 C0.91504754 3.01146244 1.02440192 5.32324447 0.625 8.4375 C0.52574219 9.21867188 0.42648438 9.99984375 0.32421875 10.8046875 C-0.0330779 13.22397324 -0.46129279 15.61429665 -1 18 C-1.66 18 -2.32 18 -3 18 C-3.33 18.66 -3.66 19.32 -4 20 C-3.42978625 13.04339229 -1.98697306 6.68572695 0 0 Z " fill="#465363" transform="translate(25,231)"/>
<path d="M0 0 C0.33 0 0.66 0 1 0 C2.03887613 5.19438067 1.69294174 8.06628408 0 13 C-0.42134754 15.28359965 -0.79659899 17.57619294 -1.125 19.875 C-1.29257812 21.02742188 -1.46015625 22.17984375 -1.6328125 23.3671875 C-1.75398438 24.23601562 -1.87515625 25.10484375 -2 26 C-2.33 26 -2.66 26 -3 26 C-3.16589226 19.97258105 -2.57114133 14.42505207 -1.5 8.5 C-1.35691406 7.67757813 -1.21382812 6.85515625 -1.06640625 6.0078125 C-0.71693088 4.00415373 -0.35931844 2.00191702 0 0 Z " fill="#6A7380" transform="translate(20,252)"/>
<path d="M0 0 C-0.639375 0.28875 -1.27875 0.5775 -1.9375 0.875 C-4.15206079 1.82823451 -4.15206079 1.82823451 -5 4 C-9.95 4 -14.9 4 -20 4 C-16.79252626 1.86168417 -14.88370763 1.46552015 -11.125 0.875 C-10.09632813 0.70742187 -9.06765625 0.53984375 -8.0078125 0.3671875 C-5.29732111 0.03629634 -2.72605266 -0.07041464 0 0 Z " fill="#4C5969" transform="translate(355,150)"/>
<path d="M0 0 C-2.21229599 2.54414039 -3.65126671 3.54746847 -7 4 C-9.67286275 4.07182357 -12.32490846 4.04458486 -15 4 C-12.19836511 2.13224341 -10.11958197 1.27321694 -6.9375 0.3125 C-6.05964844 0.04050781 -5.18179687 -0.23148438 -4.27734375 -0.51171875 C-2 -1 -2 -1 0 0 Z " fill="#3E4B5E" transform="translate(398,568)"/>
<path d="M0 0 C0.33 0 0.66 0 1 0 C1 3.96 1 7.92 1 12 C-0.98 12 -2.96 12 -5 12 C-5 11.34 -5 10.68 -5 10 C-4.01 10 -3.02 10 -2 10 C-2.04125 8.906875 -2.0825 7.81375 -2.125 6.6875 C-2 3 -2 3 0 0 Z " fill="#C6CCD1" transform="translate(336,171)"/>
<path d="M0 0 C2.64752004 2.57784846 4.94432065 4.91648098 7 8 C7 8.99 7 9.98 7 11 C7.66 11.33 8.32 11.66 9 12 C8.34 12.66 7.68 13.32 7 14 C5.82508418 12.23462904 4.66031316 10.46250287 3.5 8.6875 C2.8503125 7.70136719 2.200625 6.71523437 1.53125 5.69921875 C0 3 0 3 0 0 Z " fill="#1D2D43" transform="translate(533,152)"/>
<path d="M0 0 C4.62 0 9.24 0 14 0 C10.71508627 2.18994248 9.16904361 2.35277339 5.3125 2.625 C3.82169922 2.73714844 3.82169922 2.73714844 2.30078125 2.8515625 C1.16189453 2.92503906 1.16189453 2.92503906 0 3 C0 2.01 0 1.02 0 0 Z " fill="#243346" transform="translate(336,168)"/>
<path d="M0 0 C1.23593891 3.70781672 0.5678132 4.67510253 -0.9375 8.1875 C-1.31777344 9.08855469 -1.69804687 9.98960937 -2.08984375 10.91796875 C-2.54037109 11.94857422 -2.54037109 11.94857422 -3 13 C-3.33 13 -3.66 13 -4 13 C-3.40546697 3.40546697 -3.40546697 3.40546697 0 0 Z " fill="#4BA0A4" transform="translate(357,310)"/>
<path d="M0 0 C3.54243452 1.36591169 6.92627929 2.90931484 10.3125 4.625 C11.63701172 5.29402344 11.63701172 5.29402344 12.98828125 5.9765625 C13.65214844 6.31429687 14.31601562 6.65203125 15 7 C12 8 12 8 9.08203125 6.78515625 C7.46361328 5.93244141 7.46361328 5.93244141 5.8125 5.0625 C4.72582031 4.49660156 3.63914062 3.93070313 2.51953125 3.34765625 C1.68808594 2.90292969 0.85664063 2.45820313 0 2 C0 1.34 0 0.68 0 0 Z " fill="#213044" transform="translate(314,174)"/>
<path d="M0 0 C6.27 0.33 12.54 0.66 19 1 C19 1.33 19 1.66 19 2 C14.38 2.33 9.76 2.66 5 3 C5 2.34 5 1.68 5 1 C3.35 1 1.7 1 0 1 C0 0.67 0 0.34 0 0 Z " fill="#535C6B" transform="translate(281,580)"/>
<path d="M0 0 C0 0.33 0 0.66 0 1 C-1.98 1 -3.96 1 -6 1 C-6 1.66 -6 2.32 -6 3 C-9.96 2.67 -13.92 2.34 -18 2 C-18 1.67 -18 1.34 -18 1 C-11.96445452 0.30739642 -6.07593562 -0.11251733 0 0 Z " fill="#556070" transform="translate(351,579)"/>
<path d="M0 0 C3.33333333 3.33333333 6.66666667 6.66666667 10 10 C7 10 7 10 5.17578125 8.57421875 C4.56089844 7.95160156 3.94601563 7.32898438 3.3125 6.6875 C2.37857422 5.76517578 2.37857422 5.76517578 1.42578125 4.82421875 C0 3 0 3 0 0 Z " fill="#192A3F" transform="translate(139,196)"/>
<path d="M0 0 C1.23912545 3.57969574 0.95063395 6.35590321 0 10 C-0.99 10.66 -1.98 11.32 -3 12 C-2.88541307 10.56163249 -2.75790884 9.12429034 -2.625 7.6875 C-2.55539062 6.88699219 -2.48578125 6.08648437 -2.4140625 5.26171875 C-2 3 -2 3 0 0 Z " fill="#C5CACE" transform="translate(600,370)"/>
<path d="M0 0 C1.98 0 3.96 0 6 0 C6.33 0.99 6.66 1.98 7 3 C3.7 3 0.4 3 -3 3 C-2.01 2.67 -1.02 2.34 0 2 C0 1.34 0 0.68 0 0 Z " fill="#21384E" transform="translate(277,152)"/>
<path d="M0 0 C-3.65213136 1.61123442 -7.00989887 2.66041692 -11 3 C-13.18359375 2.015625 -13.18359375 2.015625 -15 1 C-13.25215171 0.63536268 -11.50159498 0.2836922 -9.75 -0.0625 C-8.28820312 -0.35833984 -8.28820312 -0.35833984 -6.796875 -0.66015625 C-4.131881 -0.98397535 -2.51128277 -0.85503199 0 0 Z " fill="#ABB1B8" transform="translate(267,44)"/>
<path d="M0 0 C1.10844919 3.32534757 0.84454356 5.62182575 0 9 C-0.66 9 -1.32 9 -2 9 C-2.33 9.66 -2.66 10.32 -3 11 C-2.25 3.375 -2.25 3.375 0 0 Z " fill="#364457" transform="translate(576,366)"/>
<path d="M0 0 C3.77545388 1.09068668 6.47043472 1.9083091 9 5 C8.01 5.495 8.01 5.495 7 6 C3.9375 4.75 3.9375 4.75 1 3 C0.67 2.01 0.34 1.02 0 0 Z " fill="#334155" transform="translate(198,438)"/>
<path d="M0 0 C0.66 0.66 1.32 1.32 2 2 C1.9765625 4.1640625 1.9765625 4.1640625 1.625 6.625 C1.51414062 7.44226563 1.40328125 8.25953125 1.2890625 9.1015625 C1.19367187 9.72804688 1.09828125 10.35453125 1 11 C-1.78637633 6.8204355 -0.79562512 4.85331323 0 0 Z " fill="#09243C" transform="translate(598,360)"/>
<path d="M0 0 C4.05606165 0.46800711 7.46588679 0.87953208 11 3 C6.99799622 4.60080151 3.95443764 3.29279692 0 2 C0 1.34 0 0.68 0 0 Z " fill="#324053" transform="translate(418,224)"/>
<path d="M0 0 C0.6875 1.6875 0.6875 1.6875 1 4 C-0.25 6.6875 -0.25 6.6875 -2 9 C-2.99 9.33 -3.98 9.66 -5 10 C-3.66511872 6.40608886 -2.03977277 3.24509304 0 0 Z " fill="#334053" transform="translate(58,155)"/>
<path d="M0 0 C0 0.66 0 1.32 0 2 C-4.455 2.495 -4.455 2.495 -9 3 C-9.33 2.34 -9.66 1.68 -10 1 C-6.61981469 -0.04005702 -3.5219721 -0.08004482 0 0 Z " fill="#314052" transform="translate(248,22)"/>
<path d="M0 0 C2.31 1.98 4.62 3.96 7 6 C6.34 6.66 5.68 7.32 5 8 C2.5 5.6875 2.5 5.6875 0 3 C0 2.01 0 1.02 0 0 Z " fill="#1A2C42" transform="translate(206,349)"/>
<path d="M0 0 C2.64752004 2.57784846 4.94432065 4.91648098 7 8 C6.01 8 5.02 8 4 8 C0 3.77142857 0 3.77142857 0 0 Z " fill="#1B2D42" transform="translate(130,358)"/>
<path d="M0 0 C0.66 0 1.32 0 2 0 C3.06775224 1.96466413 4.06553465 3.96855359 5 6 C4.67 6.66 4.34 7.32 4 8 C1.10067643 5.60490662 0.49831724 3.68754757 0 0 Z " fill="#344255" transform="translate(575,180)"/>
<path d="M0 0 C2.5 2.3125 2.5 2.3125 5 5 C5 5.99 5 6.98 5 8 C2.5 6.25 2.5 6.25 0 4 C0 2.68 0 1.36 0 0 Z " fill="#233449" transform="translate(240,138)"/>
<path d="M0 0 C2.5 2.3125 2.5 2.3125 5 5 C5 5.99 5 6.98 5 8 C2.5 5.6875 2.5 5.6875 0 3 C0 2.01 0 1.02 0 0 Z " fill="#1A2C43" transform="translate(524,140)"/>
<path d="M0 0 C0 0.33 0 0.66 0 1 C-1.98 1 -3.96 1 -6 1 C-6 1.66 -6 2.32 -6 3 C-8.31 2.67 -10.62 2.34 -13 2 C-13 1.67 -13 1.34 -13 1 C-8.59085217 -0.10228696 -4.51617599 -0.07654536 0 0 Z " fill="#505B6B" transform="translate(284,74)"/>
</svg>
